<?xml version="1.0" standalone="no"?>
<!DOCTYPE svg PUBLIC "-//W3C//DTD SVG 20010904//EN"
 "http://www.w3.org/TR/2001/REC-SVG-20010904/DTD/svg10.dtd">
<svg version="1.0" xmlns="http://www.w3.org/2000/svg"
 width="300.000000pt" height="300.000000pt" viewBox="0 0 300.000000 300.000000"
 preserveAspectRatio="xMidYMid meet">
<metadata>
Created by potrace 1.14, written by Peter Selinger 2001-2017
</metadata>
<g transform="translate(0.000000,300.000000) scale(0.100000,-0.100000)"
fill="#000000" stroke="none">
<path d="M675 2609 c-33 -5 -71 -10 -85 -13 -61 -9 -192 -51 -277 -88 l-93
-40 0 -1040 c0 -987 1 -1040 18 -1033 49 20 251 85 277 89 17 3 55 11 85 17
126 26 394 19 576 -15 51 -9 206 -55 261 -77 l52 -21 114 40 c98 35 195 60
297 78 14 3 95 6 180 9 159 4 286 -8 415 -42 33 -8 67 -16 76 -18 8 -2 55 -17
103 -34 48 -17 89 -31 92 -31 2 0 4 468 4 1039 l0 1039 -67 27 c-72 29 -168
64 -193 70 -40 10 -169 37 -205 43 -86 14 -358 6 -445 -12 -107 -23 -243 -67
-310 -101 l-51 -26 -102 40 c-106 41 -223 76 -291 87 -21 3 -48 8 -60 11 -40
9 -311 11 -371 2z m371 -81 c5 -3 26 -9 46 -12 75 -12 195 -48 300 -92 l109
-44 67 34 c302 152 685 165 1035 34 l87 -32 0 -957 0 -957 -62 20 c-63 19
-199 51 -273 63 -80 13 -369 13 -456 0 -108 -16 -234 -48 -324 -81 -39 -14
-72 -26 -75 -27 -3 0 -41 11 -85 25 -110 36 -233 66 -340 82 -115 18 -391 13
-503 -8 -91 -17 -227 -53 -255 -67 -16 -9 -17 39 -17 949 l0 959 64 27 c80 34
221 73 295 82 31 3 57 8 59 9 6 6 318 -2 328 -7z"/>
<path d="M997 2118 c-75 -101 -307 -429 -309 -437 -2 -5 42 -60 97 -122 55
-61 108 -121 118 -133 10 -12 35 -39 55 -61 21 -22 76 -83 122 -135 47 -52 94
-104 105 -116 11 -11 52 -56 90 -100 39 -43 81 -89 94 -104 13 -14 44 -49 69
-77 24 -29 48 -53 52 -53 3 0 67 69 142 153 75 83 145 161 155 172 10 11 58
65 108 120 49 55 94 105 100 111 5 6 26 29 45 50 85 95 215 239 220 244 40 40
41 45 15 81 -40 55 -48 66 -183 254 l-129 180 -471 3 -471 2 -24 -32z"/>
<path d="M1049 295 c-1 -3 -2 -27 -3 -54 -1 -49 -1 -49 31 -49 31 0 31 0 28
47 -1 25 -3 49 -4 54 -1 8 -50 10 -52 2z m36 -25 c3 -5 1 -10 -4 -10 -6 0 -11
5 -11 10 0 6 2 10 4 10 3 0 8 -4 11 -10z m0 -50 c3 -5 1 -10 -4 -10 -6 0 -11
5 -11 10 0 6 2 10 4 10 3 0 8 -4 11 -10z"/>
<path d="M1190 245 c0 -51 2 -55 24 -55 27 0 35 13 30 50 -1 14 -3 28 -3 33
-1 4 -8 7 -16 7 -8 0 -15 5 -15 10 0 6 -4 10 -10 10 -5 0 -10 -25 -10 -55z
m27 -22 c-3 -10 -5 -4 -5 12 0 17 2 24 5 18 2 -7 2 -21 0 -30z"/>
<path d="M1320 278 c-5 -13 -9 -18 -9 -12 -1 6 -15 11 -31 11 -25 0 -29 -4
-24 -19 3 -10 6 -32 6 -48 1 -43 32 -37 36 8 4 39 19 42 24 5 4 -38 44 -45 57
-11 11 29 4 41 -19 35 -14 -3 -16 0 -12 17 3 11 7 15 10 8 2 -6 10 -12 18 -12
12 0 12 4 4 20 -14 27 -48 26 -60 -2z m40 -58 c0 -5 -2 -10 -4 -10 -3 0 -8 5
-11 10 -3 6 -1 10 4 10 6 0 11 -4 11 -10z"/>
<path d="M1663 288 c-15 -21 -10 -80 8 -91 25 -15 49 -1 49 29 0 20 -4 25 -18
22 -13 -4 -18 1 -19 16 -1 12 1 15 4 9 6 -18 33 -16 33 1 0 24 -42 34 -57 14z
m37 -62 c0 -3 -4 -8 -10 -11 -5 -3 -10 -1 -10 4 0 6 5 11 10 11 6 0 10 -2 10
-4z"/>
<path d="M1800 245 c0 -42 3 -55 15 -55 12 0 15 11 13 45 0 25 -6 45 -12 45
-6 0 -4 5 4 10 13 8 12 10 -2 10 -15 0 -18 -9 -18 -55z"/>
<path d="M1870 286 c0 -10 -6 -13 -15 -10 -12 5 -15 -3 -15 -41 0 -45 1 -46
27 -43 26 3 28 6 27 52 0 30 -4 51 -12 54 -6 2 -12 -3 -12 -12z m-3 -63 c-3
-10 -5 -4 -5 12 0 17 2 24 5 18 2 -7 2 -21 0 -30z"/>
<path d="M1122 236 c3 -36 6 -41 29 -44 24 -3 25 0 25 42 0 43 -1 45 -28 44
-28 -1 -29 -3 -26 -42z"/>
<path d="M1406 268 c-13 -40 -13 -58 0 -69 16 -13 44 -5 44 12 0 6 -7 9 -15 5
-8 -3 -15 -1 -15 4 0 6 7 10 16 10 10 0 14 7 12 22 -3 25 -36 37 -42 16z"/>
<path d="M1460 234 c0 -42 12 -59 23 -31 4 10 6 10 6 0 1 -8 14 -13 32 -13 29
0 30 1 27 43 l-3 42 -42 1 -43 2 0 -44z m33 6 c3 -11 1 -18 -4 -14 -5 3 -9 12
-9 20 0 20 7 17 13 -6z"/>
<path d="M1564 265 c-4 -9 2 -25 12 -36 17 -19 17 -20 0 -13 -14 5 -17 3 -14
-7 7 -20 37 -23 44 -4 4 9 -2 25 -12 36 -17 19 -17 20 0 13 14 -5 17 -3 14 7
-7 20 -37 23 -44 4z"/>
<path d="M1736 243 c1 -21 2 -41 3 -45 0 -5 12 -8 26 -8 23 0 25 4 25 45 0 43
-12 60 -23 33 -4 -10 -6 -10 -6 0 -1 6 -7 12 -14 12 -9 0 -12 -13 -11 -37z"/>
<path d="M1919 270 c-24 -14 -11 -75 16 -75 10 0 20 6 23 14 3 10 0 12 -12 8
-9 -4 -16 -2 -16 3 0 6 7 10 16 10 10 0 14 7 12 22 -4 25 -17 31 -39 18z"/>
<path d="M1620 200 c0 -5 5 -10 10 -10 6 0 10 5 10 10 0 6 -4 10 -10 10 -5 0
-10 -4 -10 -10z"/>
</g>
</svg>
